<svg xmlns="http://www.w3.org/2000/svg" xml:space="preserve" width="2000" height="2000">
<path d="M0 0h2000v2000H0z" fill="#111"/>
<path d="m967.99 1039.48-37.18-37.18c-1.23-1.22-1.23-3.23 0-4.46l37.18-37.18c1.22-1.22 3.23-1.22 4.46 0l2.23 2.24c2.45 2.45 6.47 2.45 8.92 0 2.46-2.46 2.46-6.47 0-8.93l-8.92-8.92c-2.45-2.45-6.47-2.45-8.92 0l-50.56 50.56c-2.46 2.45-2.46 6.47 0 8.92l50.56 50.56c2.45 2.46 6.47 2.46 8.92 0l25.28-25.28 8.92-8.92 16.36-16.36c2.45-2.45 2.45-6.47 0-8.92l-14.13-14.13c-1.22-1.22-1.22-3.23 0-4.46l16.36-16.36a3.175 3.175 0 0 1 4.46 0l17.08 17.08 20.1 20.1c1.22 1.23 1.22 3.24 0 4.46l-37.18 37.18a3.157 3.157 0 0 1-4.46 0l-2.23-2.23c-2.45-2.45-6.47-2.45-8.92 0-2.46 2.45-2.46 6.47 0 8.92l8.92 8.92c2.45 2.46 6.47 2.46 8.92 0l50.56-50.56c2.45-2.45 2.45-6.47 0-8.92l-50.56-50.56c-2.45-2.45-6.47-2.45-8.92 0l-25.28 25.28-4.46 4.46-4.46 4.46-16.36 16.36c-2.45 2.45-2.45 6.47 0 8.92 2.45 2.46 6.47 2.46 8.92 0l6.69-6.69 7.38-7.37a3.247 3.247 0 0 1 4.58 0l7.32 7.31a3.266 3.266 0 0 1 0 4.58l-9.61 9.61-8.92 8.92-18.59 18.59c-1.23 1.23-3.24 1.23-4.46 0" style="fill:#eee"/>
</svg>